<svg width="18" height="11" viewBox="0 0 18 11" fill="none" xmlns="http://www.w3.org/2000/svg">
<path fill-rule="evenodd" clip-rule="evenodd" d="M16.3997 0.211121H15.3997C14.8474 0.211121 14.3997 0.658836 14.3997 1.21112V9.87779C14.3997 10.4301 14.8474 10.8778 15.3997 10.8778H16.3997C16.9519 10.8778 17.3997 10.4301 17.3997 9.87779V1.21112C17.3997 0.658836 16.9519 0.211121 16.3997 0.211121ZM10.733 2.54445H11.733C12.2853 2.54445 12.733 2.99217 12.733 3.54445V9.87779C12.733 10.4301 12.2853 10.8778 11.733 10.8778H10.733C10.1807 10.8778 9.73299 10.4301 9.73299 9.87779V3.54445C9.73299 2.99217 10.1807 2.54445 10.733 2.54445ZM7.06632 4.87779H6.06632C5.51404 4.87779 5.06632 5.3255 5.06632 5.87779V9.87779C5.06632 10.4301 5.51404 10.8778 6.06632 10.8778H7.06632C7.61861 10.8778 8.06632 10.4301 8.06632 9.87779V5.87779C8.06632 5.3255 7.61861 4.87779 7.06632 4.87779ZM2.39966 6.87779H1.39966C0.847373 6.87779 0.399658 7.3255 0.399658 7.87779V9.87779C0.399658 10.4301 0.847373 10.8778 1.39966 10.8778H2.39966C2.95194 10.8778 3.39966 10.4301 3.39966 9.87779V7.87779C3.39966 7.3255 2.95194 6.87779 2.39966 6.87779Z" fill="white"/>
</svg>
