<svg width="25" height="13" viewBox="0 0 25 13" fill="none" xmlns="http://www.w3.org/2000/svg">
<path opacity="0.35" d="M1.17206 3.54444C1.17206 2.34783 2.14211 1.37778 3.33872 1.37778H20.0054C21.202 1.37778 22.1721 2.34783 22.1721 3.54444V9.54445C22.1721 10.7411 21.202 11.7111 20.0054 11.7111H3.33872C2.14211 11.7111 1.17206 10.7411 1.17206 9.54444V3.54444Z" stroke="white"/>
<path opacity="0.4" d="M23.6721 4.54443V8.54443C24.4768 8.20566 25.0001 7.41757 25.0001 6.54443C25.0001 5.6713 24.4768 4.88321 23.6721 4.54443Z" fill="white"/>
<path d="M2.67206 4.21111C2.67206 3.47473 3.26901 2.87778 4.00539 2.87778H19.3387C20.0751 2.87778 20.6721 3.47473 20.6721 4.21111V8.87778C20.6721 9.61416 20.0751 10.2111 19.3387 10.2111H4.00539C3.26901 10.2111 2.67206 9.61416 2.67206 8.87778V4.21111Z" fill="white"/>
</svg>
